<svg xmlns="http://www.w3.org/2000/svg" xmlns:xlink="http://www.w3.org/1999/xlink" version="1.1" x="0px" y="0px" viewBox="0 0 100 100" enable-background="new 0 0 100 100" xml:space="preserve">
	<g>
		<ellipse fill="#adb5bd" transform="matrix(0.8648 0.5021 -0.5021 0.8648 20.0837 -32.4118)" cx="70.2" cy="21.1" rx="4.3" ry="2.9">
		</ellipse>
		<path fill="#adb5bd" d="M42.5,30.3L42.5,30.3C42.5,30.3,42.5,30.3,42.5,30.3c-0.1,1.9,0.7,3.6,2.1,4.4c0.4,0.3,0.9,0.4,1.4,0.5   c1.4,0.2,3-0.3,4.3-1.5c1-0.2,2-0.7,2.6-1.5c0.7-0.8,1.1-1.8,1.1-2.9c0-1.3-0.6-2.5-1.5-3.3c-0.2-0.4-0.4-0.8-0.7-1.2   c-0.3-0.3-0.6-0.6-1-0.9c-0.5-0.3-1-0.4-1.6-0.5c-1.6-0.2-3.4,0.6-4.8,2.1c-0.3-0.3-0.6-0.5-0.9-0.6c-0.3-0.1-0.7-0.2-1.1-0.2   c-0.3,0-0.6,0.1-0.9,0.2c-0.5,1.3-1,2.7-1.4,4c0.2,0.4,0.6,0.7,1,1C41.6,30.2,42,30.3,42.5,30.3z">
		</path>
		<path fill="#adb5bd" d="M63.5,27.4c-0.4,0-0.8,0.1-1.2,0.2c-1.2,0.3-2.2,1-2.8,2c-1.6,0.1-3,0.8-4,1.9c-1,1.1-1.6,2.5-1.6,4.1   c0,0.4,0,0.8,0.1,1.2c0.2,0.8,0.5,1.5,0.9,2.2c0.2,0.3,0.5,0.6,0.7,0.9c0.5,0.5,1.2,1,1.9,1.3c0.1,0,0.2,0,0.2,0.1   c0.2-0.7,0.8-1.3,1.6-1.3c0.8,0,1.5,0.6,1.6,1.5c2.5-0.5,4.5-2.4,4.8-4.9c1.5-0.8,2.5-2.4,2.5-4.2C68.4,29.6,66.2,27.4,63.5,27.4z">
		</path>
		<path fill="#adb5bd" d="M80,30.6c-0.5-0.7-1.1-1.3-2-1.7c-0.6-0.2-1.2-0.4-1.9-0.4c-0.7,0-1.3,0.1-1.9,0.4   c-1.2,0.5-2.1,1.4-2.6,2.6c-0.2,0.6-0.4,1.2-0.4,1.9c0,0.7,0.1,1.3,0.4,1.9c0.3,0.8,1,1.4,1.7,2c0.8,0.6,1.7,1,2.8,1   c1.3,0,2.6-0.5,3.4-1.4c0.9-0.9,1.4-2.1,1.4-3.4C81,32.3,80.6,31.4,80,30.6z">
		</path>
		<path fill="#adb5bd" d="M73,44.1c-0.3,0-0.6,0.1-0.8,0.2c-0.7,0.3-1.3,1.1-1.3,1.9c0,0.9,0.5,1.6,1.3,1.9c0.2,0.1,0.5,0.2,0.8,0.2   c0.6,0,1.1-0.2,1.5-0.6c0.4-0.4,0.6-0.9,0.6-1.5c0-0.6-0.2-1.1-0.6-1.5C74.1,44.3,73.6,44.1,73,44.1z">
		</path>
		<path fill="#adb5bd" d="M78.8,24.3c0.4,0,0.7-0.1,1-0.3c-0.9-1-1.8-1.9-2.8-2.7l0,0c-0.1,0.3-0.2,0.6-0.2,0.9   c0,0.6,0.2,1.1,0.6,1.5C77.8,24.1,78.3,24.3,78.8,24.3z">
		</path>
		<circle fill="#adb5bd" cx="61.2" cy="75.5" r="0.9">
		</circle>
		<path fill="#adb5bd" d="M43.3,41c0,0.5,0.3,1,0.8,1.4c0.5,0.4,1.1,0.6,1.8,0.6s1.4-0.2,1.8-0.6c0.5-0.4,0.8-0.9,0.8-1.4   c0-0.3-0.1-0.5-0.2-0.8c-0.4-0.7-1.3-1.2-2.4-1.2C44.5,39.1,43.3,39.9,43.3,41z">
		</path>
		<path fill="#adb5bd" d="M52.8,64c-0.9-0.6-2-1-3.2-1h0c-0.8,0-1.5,0.2-2.2,0.4c-0.7,0.3-1.3,0.7-1.8,1.2c-1,1-1.7,2.4-1.7,4   s0.6,2.7,1.7,3.5c0.5,0.4,1.1,0.7,1.8,0.9c0.7,0.2,1.4,0.3,2.2,0.3h0c1.2,0,2.3-0.2,3.2-0.7c1.5-0.7,2.5-2.1,2.5-4   C55.3,66.7,54.3,65,52.8,64z">
		</path>
		<path fill="#adb5bd" d="M41.6,62.2c-0.4-0.2-0.8-0.2-1.2-0.2c-0.9,0-1.6,0.4-2.2,0.9c0.3,1.7,0.7,3.4,1.1,5.1v0   c0.3,0.1,0.7,0.3,1,0.3c0.4,0,0.8-0.1,1.2-0.2c1.1-0.5,1.9-1.6,1.9-2.9c0-0.9-0.4-1.7-0.9-2.2C42.3,62.6,42,62.3,41.6,62.2z">
		</path>
		<path fill="#adb5bd" d="M42.7,52.8c0-3.7-2.3-6.8-5.5-8C37.1,46.5,37,48.3,37,50c0,3.6,0.3,7.1,0.8,10.6c1.1-0.5,2.1-1.3,2.9-2.2   C42,56.9,42.7,54.9,42.7,52.8z">
		</path>
		<path fill="#adb5bd" d="M42.7,77.9c0-0.2,0.1-0.3,0.1-0.5c0-1-0.5-1.8-1.2-2.3C41.9,76,42.3,76.9,42.7,77.9z">
		</path>
		<path fill="#adb5bd" d="M50,5C30.9,5,14.6,17,8.1,33.8C8,33.9,8,34,8,34.1c-0.4,1.1-0.8,2.2-1.2,3.4c-0.1,0.4-0.2,0.8-0.3,1.2   c-0.2,0.9-0.5,1.8-0.7,2.8c-0.1,0.7-0.2,1.4-0.3,2.1c-0.1,0.7-0.2,1.4-0.3,2C5.1,47.1,5,48.5,5,50s0.1,2.9,0.2,4.4   c0.1,0.7,0.2,1.4,0.3,2.1c0.1,0.7,0.2,1.4,0.3,2.1c0.2,1,0.4,1.9,0.7,2.8c0.1,0.4,0.2,0.8,0.3,1.1c0.3,1.2,0.7,2.3,1.2,3.4   C8,66,8,66.1,8.1,66.2C14.6,83,30.9,95,50,95c24.8,0,45-20.2,45-45C95,25.2,74.8,5,50,5z M50,90.8c-0.1,0-0.2,0-0.2,0   c-1,0-2.1-0.1-3.1-0.2c-0.7-1.1-1.4-2.2-2.1-3.3c-0.4-0.7-0.8-1.4-1.2-2.1c-0.9-1.6-1.8-3.3-2.6-5c-0.8-1.8-1.6-3.7-2.3-5.6   c-0.6-1.6-1.1-3.3-1.6-4.9c-1.2-4.2-2-8.5-2.4-12.8c-0.1-1.2-0.2-2.4-0.2-3.6c0-1.1-0.1-2.2-0.1-3.3c0-1.9,0.1-3.9,0.2-5.8   c0.9-11.2,4.4-22,10.3-31.7c0.7-1.1,1.3-2.2,2.1-3.2c1-0.1,2-0.2,3.1-0.2c0.1,0,0.2,0,0.2,0c22.5,0,40.8,18.3,40.8,40.8   C90.8,72.5,72.5,90.8,50,90.8z">
		</path>
	</g>
</svg>
