<svg xmlns="http://www.w3.org/2000/svg" xmlns:xlink="http://www.w3.org/1999/xlink" version="1.1" x="0px" y="0px" viewBox="0 0 100 100" enable-background="new 0 0 100 100" xml:space="preserve">
	<g>
		<ellipse fill="#adb5bd" transform="matrix(0.8648 0.5021 -0.5021 0.8648 20.0843 -32.4108)" cx="70.2" cy="21.1" rx="4.3" ry="2.9">
		</ellipse>
		<path fill="#adb5bd" d="M79.6,29.9c-0.9-0.9-2.1-1.4-3.4-1.4c-0.7,0-1.3,0.1-1.9,0.4c-1.2,0.5-2.1,1.4-2.6,2.6   c-0.2,0.6-0.4,1.2-0.4,1.9c0,0.7,0.1,1.3,0.4,1.9c0.5,1.2,1.4,2.1,2.6,2.6c0.6,0.2,1.2,0.4,1.9,0.4c1.3,0,2.6-0.5,3.4-1.4   c0.9-0.9,1.4-2.1,1.4-3.4C81,32,80.5,30.8,79.6,29.9z">
		</path>
		<path fill="#adb5bd" d="M73,44.1c-0.3,0-0.6,0.1-0.8,0.2c-0.2,0.1-0.4,0.2-0.6,0.4v0c0.1,1,0.1,2.1,0.1,3.1   c0.1,0.1,0.3,0.2,0.5,0.3c0.2,0.1,0.5,0.2,0.8,0.2c1.1,0,2.1-0.9,2.1-2.1C75.1,45,74.1,44.1,73,44.1z">
		</path>
		<path fill="#adb5bd" d="M78.8,24.3c0.4,0,0.7-0.1,1-0.3c-0.9-1-1.8-1.9-2.8-2.7l0,0c-0.1,0.3-0.2,0.6-0.2,0.9   c0,0.6,0.2,1.1,0.6,1.5C77.8,24.1,78.3,24.3,78.8,24.3z">
		</path>
		<path fill="#adb5bd" d="M57.1,5.6c-0.7-0.1-1.3-0.2-2-0.3c-0.4,0-0.8-0.1-1.1-0.1l0,0l-0.6,0l-0.9-0.1C51.6,5.1,50.8,5,50,5   C25.2,5,5,25.2,5,50c0,24.8,20.2,45,45,45c0.8,0,1.6-0.1,2.5-0.1l0.7,0l0.8-0.1l0,0c0.4,0,0.9-0.1,1.3-0.1c0.6-0.1,1.2-0.2,1.8-0.3   C78.5,91,95,72.4,95,50C95,27.6,78.5,9,57.1,5.6z M60.6,89.4c-1,0.3-2,0.5-3,0.7c-0.2,0-0.4,0.1-0.6,0.1c0.6-0.9,1.1-1.8,1.6-2.7   C65.3,76.1,68.8,63.3,68.8,50c0-5-0.5-9.9-1.5-14.7c-0.5-2.5-1.1-5-1.9-7.5c-1.7-5.3-3.9-10.5-6.8-15.4c-0.5-0.9-1-1.8-1.6-2.6   c0.2,0,0.4,0.1,0.6,0.1c1,0.2,2,0.4,3,0.7C78,15.3,90.8,31.1,90.8,50C90.8,68.9,78,84.7,60.6,89.4z">
		</path>
	</g>
</svg>
