<svg xmlns="http://www.w3.org/2000/svg" xmlns:xlink="http://www.w3.org/1999/xlink" version="1.1" x="0px" y="0px" viewBox="0 0 100 100" enable-background="new 0 0 100 100" xml:space="preserve">
	<g>
		<path fill="#adb5bd" d="M50,5C25.2,5,5,25.2,5,50c0,24.8,20.2,45,45,45s45-20.2,45-45C95,25.2,74.8,5,50,5z M50,90.8   C27.5,90.8,9.2,72.5,9.2,50C9.2,27.5,27.5,9.2,50,9.2S90.8,27.5,90.8,50C90.8,72.5,72.5,90.8,50,90.8z">
		</path>
		<path fill="#adb5bd" d="M72.1,23.3c0.4-0.7,0.3-1.6-0.1-2.4c-0.4-0.9-1.2-1.7-2.2-2.3c-2.1-1.2-4.4-1-5.2,0.3   c-0.4,0.7-0.4,1.6,0.1,2.4c0.2,0.4,0.5,0.8,0.9,1.2s0.8,0.7,1.3,1c1,0.6,2.1,0.9,3.1,0.8C70.9,24.4,71.7,24,72.1,23.3z">
		</path>
		<path fill="#adb5bd" d="M38.5,29.3c0.5,0.6,1.3,1,2.2,1h0c0,0,0,0,0,0c-0.1,1.9,0.7,3.6,2.1,4.4c0.4,0.3,0.9,0.4,1.4,0.5   c1.4,0.2,3-0.3,4.3-1.5c1-0.2,2-0.7,2.6-1.5c0.7-0.8,1.1-1.8,1.1-2.9c0-1.3-0.6-2.5-1.5-3.3c-0.2-0.4-0.4-0.8-0.7-1.2   c-0.3-0.3-0.6-0.6-1-0.9c-0.5-0.3-1-0.4-1.6-0.5c-0.5-0.1-1.1,0-1.7,0.1c-1.1,0.3-2.2,1-3.1,2c-0.3-0.3-0.6-0.5-0.9-0.6   c-0.3-0.1-0.7-0.2-1.1-0.2c-1.2,0-2.1,0.7-2.6,1.7c-0.1,0.3-0.2,0.7-0.2,1.1c0,0.4,0.1,0.8,0.2,1.1C38.2,28.9,38.3,29.1,38.5,29.3z   ">
		</path>
		<path fill="#adb5bd" d="M61.7,27.4c-0.4,0-0.8,0.1-1.2,0.2c-0.8,0.2-1.5,0.6-2.1,1.1c-0.3,0.3-0.5,0.6-0.8,0.9   c-3.1,0.2-5.6,2.8-5.6,6c0,2.5,1.5,4.6,3.7,5.6c0.1,0,0.2,0,0.2,0.1c0.2-0.7,0.8-1.3,1.6-1.3c0.8,0,1.5,0.6,1.6,1.5   c2.5-0.5,4.5-2.4,4.8-4.9c1.5-0.8,2.5-2.4,2.5-4.2c0-1.3-0.5-2.6-1.4-3.4C64.2,28,63,27.4,61.7,27.4z">
		</path>
		<path fill="#adb5bd" d="M78.1,30.6c-0.5-0.7-1.1-1.3-2-1.7c-0.6-0.2-1.2-0.4-1.9-0.4c-0.7,0-1.3,0.1-1.9,0.4   c-1.2,0.5-2.1,1.4-2.6,2.6c-0.2,0.6-0.4,1.2-0.4,1.9c0,0.7,0.1,1.3,0.4,1.9c0.5,1.2,1.4,2.1,2.6,2.6c0.6,0.2,1.2,0.4,1.9,0.4   c1.3,0,2.6-0.5,3.4-1.4c0.9-0.9,1.4-2.1,1.4-3.4C79.1,32.3,78.7,31.4,78.1,30.6z">
		</path>
		<path fill="#adb5bd" d="M71.1,44.1c-0.3,0-0.6,0.1-0.8,0.2c-0.7,0.3-1.3,1.1-1.3,1.9s0.5,1.6,1.3,1.9c0.2,0.1,0.5,0.2,0.8,0.2   c1.1,0,2.1-0.9,2.1-2.1C73.2,45,72.3,44.1,71.1,44.1z">
		</path>
		<circle fill="#adb5bd" cx="28.5" cy="22.8" r="2.1">
		</circle>
		<path fill="#adb5bd" d="M77,24.3c0.4,0,0.7-0.1,1-0.3c-0.9-1-1.8-1.9-2.8-2.7l0,0c-0.1,0.3-0.2,0.6-0.2,0.9c0,0.6,0.2,1.1,0.6,1.5   C75.9,24.1,76.4,24.3,77,24.3z">
		</path>
		<circle fill="#adb5bd" cx="59.3" cy="75.5" r="0.9">
		</circle>
		<path fill="#adb5bd" d="M42.2,39.6c-0.5,0.4-0.8,0.9-0.8,1.4c0,0.5,0.3,1,0.8,1.4c0.5,0.4,1.1,0.6,1.8,0.6c0.7,0,1.4-0.2,1.8-0.6   c0.5-0.4,0.8-0.9,0.8-1.4c0-0.5-0.3-1-0.8-1.4c-0.5-0.4-1.1-0.6-1.8-0.6C43.3,39.1,42.7,39.3,42.2,39.6z">
		</path>
		<path fill="#adb5bd" d="M47.7,63L47.7,63c-3.1,0-5.7,2.5-5.7,5.7c0,3.1,2.5,4.7,5.7,4.7h0c2,0,3.7-0.6,4.7-1.8c0.6-0.7,1-1.7,1-2.9   c0-1.2-0.4-2.3-1-3.2C51.4,64,49.7,63,47.7,63z">
		</path>
		<path fill="#adb5bd" d="M36.1,67c0.6,0.7,1.5,1.2,2.5,1.2c0.4,0,0.8-0.1,1.2-0.2c1.1-0.5,1.9-1.6,1.9-2.9c0-0.9-0.4-1.7-0.9-2.2   c-0.3-0.3-0.6-0.5-1-0.7c-0.4-0.2-0.8-0.2-1.2-0.2c-1.3,0-2.4,0.8-2.9,1.9c-0.2-0.5-0.5-0.9-0.8-1.4c-0.3-0.4-0.7-0.8-1-1.1   c0,0,0,0,0,0c4-0.7,7-4.3,7-8.5c0-4.8-3.9-8.6-8.6-8.6c-0.5,0-1,0-1.5,0.1c-0.5,0.1-0.9,0.2-1.4,0.4c0.9-0.9,1.6-2.1,1.9-3.5   c0.1-0.5,0.1-0.9,0.1-1.4c0-0.3,0-0.6-0.1-1c0.6-0.6,1-1.2,1.4-2c0.3-0.8,0.5-1.6,0.5-2.5c0-3.4-2.8-6.2-6.2-6.2   c-0.4,0-0.8,0-1.2,0.1c-0.8,0.2-1.5,0.4-2.1,0.9c-0.6,0.4-1.2,0.9-1.7,1.5c-0.3,0.4-0.6,0.9-0.8,1.4c-0.2,0.5-0.3,1-0.4,1.6h0   c1.3,0.2,2.3,1.2,2.3,2.6c0,1.5-1.2,2.6-2.6,2.6c-1.1,0-2.1-0.7-2.5-1.7c-0.3,0.8-0.6,1.7-0.6,2.6c0,1.4,0.4,2.7,1.1,3.7   c-0.6,0.6-1.3,0.6-1.9,0.2c-0.4-0.3-0.8-0.7-1.2-1.1c-0.2-0.2-0.3-0.5-0.5-0.7c-0.3-0.5-0.6-0.9-0.7-1.3c-0.4-0.8-0.5-1.8-0.7-2.3   c-1,3.2-1.7,6.6-1.8,10.1c0,0.5,0,1,0,1.6c0,0.5,0,0.9,0,1.4c1.6-0.5,3.4,0.9,4.1,3c0.7,2.2,0,4.3-1.6,4.8c-0.4,0.1-0.9,0.1-1.3,0   c0,0.2,0.1,0.3,0.1,0.5c0.9,3.2,2.2,6.3,3.8,9.1c0.1-0.2,0.1-0.5,0.3-0.6c0.6-0.4,1.5-0.2,2,0.6c0.5,0.7,0.5,1.7,0,2.1c0,0,0,0,0,0   c0,0,0,0,0,0c0.3,0.2,0.6,0.4,0.9,0.6c1,0.5,2,0.9,3,1c0.5,0.1,1,0.1,1.4,0c-0.5,0.3-0.8,0.9-0.8,1.5c0,1,0.8,1.8,1.8,1.8   c1,0,1.8-0.8,1.8-1.8c0-0.8-0.5-1.4-1.2-1.7c0.4-0.1,0.7-0.1,1.1-0.3c0.4,0.2,0.8,0.3,1.2,0.4c0.4,0.1,0.9,0.1,1.3,0.1   C33,72.6,35.7,70.2,36.1,67L36.1,67z M25.4,63.4c-0.9,0-1.7-0.7-1.7-1.7c0-0.9,0.7-1.7,1.7-1.7c0.9,0,1.7,0.7,1.7,1.7   C27,62.7,26.3,63.4,25.4,63.4z M30.8,57.6c-1.4,0-2.5-1.1-2.5-2.5c0-0.2,0.1-0.4,0.1-0.6c-0.4,0.3-0.8,0.6-1.3,0.7   c-1.9,0.6-4-0.4-4.5-2.1c-0.3-0.9-0.1-1.7,0.3-2.5c-0.3,0-0.6,0-0.9,0c-0.6-1.4-1.6-2.6-3-3.4l2.2-1.4h0c0.5,0.2,1,0.4,1.5,0.6   c0.5,0.1,1.1,0.2,1.7,0.2c0.7,0,1.3-0.1,2-0.3c-0.9,0.8-1.5,1.8-2,2.9h0c0.2-0.1,0.5-0.3,0.7-0.4c1.9-0.6,4,0.4,4.5,2.1   c0.2,0.7,0.1,1.4-0.2,2.1c0.4-0.2,0.8-0.4,1.3-0.4c1.4,0,2.5,1.1,2.5,2.5C33.3,56.5,32.2,57.6,30.8,57.6z">
		</path>
		<path fill="#adb5bd" d="M40.9,77.4c0-1.3-0.8-2.3-1.8-2.8c-0.4-0.2-0.8-0.2-1.2-0.2c-1.7,0-3.3,1.4-3,3c0.2,1.2,1.8,1.4,3,2.5   c0.2,0.1,0.3,0.2,0.5,0.3c0.2,0,0.3,0.1,0.5,0c0.2,0,0.3-0.1,0.5-0.2c0.2-0.1,0.3-0.2,0.5-0.3C40.4,79.1,40.9,78.2,40.9,77.4z">
		</path>
		<path fill="#adb5bd" d="M44.4,86.1c-0.5-0.6-1.2-1-2-1c-0.4,0-0.8,0-1.2,0.1c-0.4,0.1-0.7,0.3-1,0.6c-0.3,0.2-0.6,0.5-0.8,0.9   c1.8,0.5,3.8,0.9,5.7,1.2c0-0.2-0.1-0.4-0.1-0.7C44.8,86.8,44.6,86.4,44.4,86.1z">
		</path>
	</g>
</svg>
