<svg xmlns="http://www.w3.org/2000/svg" xmlns:xlink="http://www.w3.org/1999/xlink" version="1.1" x="0px" y="0px" viewBox="0 0 100 100" enable-background="new 0 0 100 100" xml:space="preserve">
	<g>
		<path fill="#adb5bd" d="M40.6,30.3C40.6,30.3,40.6,30.3,40.6,30.3c0,0.5,0,0.9,0.1,1.4c0.2,1.3,0.9,2.4,2,3c1.7,1,4,0.5,5.7-1   c1-0.2,2-0.7,2.6-1.5c0.7-0.8,1.1-1.8,1.1-2.9c0-0.7-0.1-1.3-0.4-1.8c-0.3-0.6-0.6-1.1-1.1-1.5c-0.2-0.4-0.4-0.8-0.7-1.2   c-0.3-0.3-0.6-0.6-1-0.9c-1.9-1.1-4.5-0.4-6.3,1.6c-0.5-0.5-1.2-0.9-2-0.9c-1.5,0-2.8,1.2-2.8,2.8C37.8,29,39,30.3,40.6,30.3z">
		</path>
		<path fill="#adb5bd" d="M58.3,28.7c-0.3,0.3-0.5,0.6-0.8,0.9c-0.8,0.1-1.5,0.3-2.2,0.6c-2,1-3.4,3-3.4,5.4c0,0.8,0.2,1.6,0.5,2.3   c0.5,1.1,1.2,2,2.2,2.7c0.4,0.3,0.8,0.5,1.3,0.6v0c0.2-0.7,0.8-1.3,1.6-1.3c0.8,0,1.5,0.6,1.6,1.5v0c1.1-0.2,2.1-0.6,2.8-1.3   c0.1-0.1,0.1-0.2,0.2-0.3c-0.6-4.1-1.5-8.1-2.7-12C59,28.2,58.6,28.4,58.3,28.7z">
		</path>
		<circle fill="#adb5bd" cx="28.5" cy="22.8" r="2.1">
		</circle>
		<ellipse fill="#adb5bd" cx="44" cy="41" rx="2.6" ry="2">
		</ellipse>
		<path fill="#adb5bd" d="M47.6,63c-3.1,0-5.7,2.5-5.7,5.7c0,3.1,2.5,4.7,5.7,4.7c3.1,0,5.7-1.5,5.7-4.7C53.3,65.5,50.8,63,47.6,63z">
		</path>
		<path fill="#adb5bd" d="M37.1,67.9c0.4,0.2,0.9,0.3,1.4,0.3c0.4,0,0.8-0.1,1.2-0.2c0.4-0.2,0.7-0.4,1-0.7c0.6-0.6,0.9-1.4,0.9-2.2   c0-1.7-1.4-3.2-3.2-3.2c-0.7,0-1.3,0.2-1.8,0.5c-0.5,0.3-0.9,0.8-1.1,1.4c-0.2-0.5-0.5-0.9-0.8-1.4c-0.3-0.4-0.7-0.8-1-1.1   c0,0,0,0,0,0c4-0.7,7-4.3,7-8.5c0-4.8-3.9-8.6-8.6-8.6c-0.5,0-1,0-1.5,0.1c-0.5,0.1-0.9,0.2-1.4,0.4l0,0c0.5-0.5,0.9-1,1.2-1.6   c0.3-0.6,0.6-1.2,0.7-1.9c0.1-0.5,0.1-0.9,0.1-1.4c0-0.3,0-0.6-0.1-1c1.2-1.1,1.9-2.7,1.9-4.4c0-3.4-2.8-6.2-6.2-6.2   c-2,0-3.9,1-5,2.5c-0.6,0.8-1,1.9-1.2,3c1.3,0.2,2.3,1.2,2.3,2.6c0,1.5-1.2,2.6-2.6,2.6c-1.1,0-2.1-0.7-2.5-1.7   c-0.3,0.8-0.6,1.7-0.6,2.6c0,1.4,0.4,2.7,1.1,3.7C17,45.1,15,42,14.3,40.6c-0.4-0.8-0.5-1.8-0.7-2.3c-1,3.2-1.7,6.6-1.8,10.1   c0,0.5,0,1,0,1.6c0,0.5,0,0.9,0,1.4c1.6-0.5,3.4,0.9,4.1,3c0.7,2.2,0,4.3-1.6,4.8c-0.4,0.1-0.9,0.1-1.3,0c0,0.2,0.1,0.3,0.1,0.5   c0.9,3.2,2.2,6.3,3.8,9.1c0.1-0.2,0.1-0.5,0.3-0.6c0.6-0.4,1.5-0.2,2,0.6c0.5,0.7,0.5,1.7,0,2.1c0,0,0,0,0,0   c0.8,0.5,1.6,0.9,2.4,1.2c0.5,0.2,1,0.3,1.5,0.4c0.5,0.1,1,0.1,1.4,0c-0.5,0.3-0.8,0.9-0.8,1.5c0,1,0.8,1.8,1.8,1.8   s1.8-0.8,1.8-1.8c0-0.8-0.5-1.4-1.2-1.7c0.4-0.1,0.7-0.1,1.1-0.3c0.4,0.2,0.8,0.3,1.2,0.4c0.4,0.1,0.9,0.1,1.3,0.1   c1.6,0,3.1-0.6,4.3-1.6c1.1-1,1.9-2.4,2.1-4C36.3,67.3,36.6,67.6,37.1,67.9z M25.3,63.4c-0.9,0-1.7-0.7-1.7-1.7   c0-0.9,0.7-1.7,1.7-1.7c0.9,0,1.7,0.7,1.7,1.7C26.9,62.6,26.2,63.4,25.3,63.4z M30.7,57.6c-1.4,0-2.5-1.1-2.5-2.5   c0-0.2,0.1-0.4,0.1-0.6c-0.4,0.3-0.8,0.6-1.3,0.7c-1.9,0.6-4-0.4-4.5-2.1c-0.3-0.9-0.1-1.7,0.3-2.5c-0.3,0-0.6,0-0.9,0   c-0.3-0.7-0.7-1.4-1.2-2c-0.5-0.6-1.1-1.1-1.8-1.5l2.2-1.4c1,0.5,2,0.8,3.2,0.8c0.7,0,1.3-0.1,2-0.3c-0.9,0.8-1.5,1.8-2,2.9   c0.2-0.1,0.5-0.3,0.7-0.4c1.9-0.6,4,0.4,4.5,2.1c0.2,0.7,0.1,1.4-0.2,2.1c0.4-0.2,0.8-0.4,1.3-0.4c1.4,0,2.5,1.1,2.5,2.5   C33.2,56.5,32.1,57.6,30.7,57.6z">
		</path>
		<path fill="#adb5bd" d="M40.8,77.4c0-1.7-1.4-3-3-3c-1.7,0-3.3,1.4-3,3c0.2,1.2,1.8,1.4,3,2.5C39,81,40.8,79,40.8,77.4z">
		</path>
		<path fill="#adb5bd" d="M44.3,86.1c-0.8-0.9-2-1.3-3.2-0.9c-0.7,0.2-1.4,0.8-1.8,1.4c1.8,0.5,3.8,0.9,5.7,1.2   c0-0.2-0.1-0.4-0.1-0.7C44.8,86.8,44.6,86.4,44.3,86.1z">
		</path>
		<path fill="#adb5bd" d="M94.9,49.4c0-1.3-0.1-2.5-0.2-3.8c-0.1-0.8-0.2-1.5-0.3-2.3c-0.1-0.6-0.2-1.3-0.3-1.9c-0.2-1-0.4-2-0.7-2.9   c-0.1-0.3-0.2-0.7-0.3-1c-0.3-1.2-0.7-2.4-1.2-3.5c0-0.1,0-0.1-0.1-0.2C85.3,16.9,69,5,49.9,5c-24.8,0-45,20.2-45,45   c0,24.8,20.2,45,45,45C69,95,85.3,83,91.9,66.2c0-0.1,0-0.1,0.1-0.2c0.4-1.1,0.8-2.3,1.2-3.5c0.1-0.3,0.2-0.7,0.3-1   c0.3-1,0.5-1.9,0.7-2.9c0.1-0.6,0.2-1.3,0.3-1.9c0.1-0.8,0.2-1.5,0.3-2.3c0.1-1.2,0.2-2.5,0.2-3.8c0-0.2,0-0.4,0-0.6   C94.9,49.8,94.9,49.6,94.9,49.4z M55.1,87.7c-0.6,1-1.2,1.9-1.9,2.9c-1,0.1-2,0.2-3.1,0.2c-0.1,0-0.2,0-0.2,0   C27.4,90.8,9.1,72.5,9.1,50S27.4,9.1,49.9,9.1c0.1,0,0.2,0,0.2,0c1,0,2.1,0.1,3.1,0.2c0.7,0.9,1.2,1.9,1.9,2.9   c3,4.9,5.4,10,7.2,15.4v0c0.9,2.8,1.6,5.7,2.2,8.6v0c0.9,4.5,1.4,9.2,1.4,13.9C65.9,63.4,62.1,76.4,55.1,87.7z">
		</path>
	</g>
</svg>
