<svg xmlns="http://www.w3.org/2000/svg" xmlns:xlink="http://www.w3.org/1999/xlink" version="1.1" x="0px" y="0px" viewBox="0 0 100 100" enable-background="new 0 0 100 100" xml:space="preserve">
	<g>
		<circle fill="#adb5bd" cx="28.7" cy="23" r="2.1">
		</circle>
		<path fill="#adb5bd" d="M28.5,55.3c0-0.1,0-0.1,0-0.2c0-0.1,0-0.2,0-0.3c-0.4,0.3-0.8,0.5-1.3,0.6c-1.9,0.6-4-0.4-4.5-2.1   c-0.3-0.9-0.1-1.7,0.3-2.5c-0.3,0-0.6,0-0.9,0c-0.3-0.7-0.7-1.4-1.2-2c-0.5-0.6-1.1-1.1-1.8-1.5l0,0l2.2-1.4h0   c0.5,0.2,1,0.4,1.5,0.6c0.5,0.1,1.1,0.2,1.7,0.2c0.7,0,1.3-0.1,2-0.3c-0.6,0.6-1.2,1.2-1.6,1.9c-0.2,0.3-0.2,0.6-0.4,0.9   c0.2-0.1,0.5-0.3,0.7-0.4c1.1-0.3,2.2-0.1,3,0.4c0.1-6.7,1-13.3,2.8-19.6v0c-1.1-0.9-2.5-1.5-4-1.5c-2.5,0-4.6,1.4-5.6,3.5   c-0.3,0.6-0.5,1.3-0.6,2c1.3,0.2,2.3,1.2,2.3,2.6c0,1.5-1.2,2.6-2.6,2.6c-1.1,0-2.1-0.7-2.5-1.7c-0.1,0.3-0.2,0.5-0.3,0.8   c-0.2,0.6-0.2,1.2-0.2,1.8c0,1.4,0.4,2.7,1.1,3.7c-0.6,0.6-1.3,0.6-1.9,0.2c-0.4-0.3-0.8-0.7-1.2-1.1c-0.2-0.2-0.3-0.5-0.5-0.7   c-0.3-0.4-0.5-0.8-0.6-1.1c0-0.1-0.1-0.1-0.1-0.2c0-0.1-0.1-0.2-0.1-0.3c-0.3-0.7-0.5-1.6-0.6-2c-1,3.2-1.7,6.6-1.8,10.1   c0,0.5,0,1,0,1.6c0,0.5,0,0.9,0,1.4c1.6-0.5,3.4,0.9,4.1,3c0.7,2.2,0,4.3-1.6,4.8c-0.4,0.1-0.9,0.1-1.3,0c0,0.2,0.1,0.3,0.1,0.5   c0.9,3.2,2.2,6.3,3.8,9.1c0.1-0.2,0.1-0.5,0.3-0.6c0.6-0.4,1.5-0.2,2,0.6c0.5,0.7,0.5,1.7,0,2.1c0,0,0,0,0,0c1.3,0.8,2.6,1.4,4,1.6   c0.5,0.1,1,0.1,1.4,0c-0.5,0.3-0.8,0.9-0.8,1.5c0,1,0.8,1.8,1.8,1.8c1,0,1.8-0.8,1.8-1.8c0-0.8-0.5-1.4-1.2-1.7   c0.4-0.1,0.7-0.1,1.1-0.3c0.4,0.2,0.8,0.3,1.2,0.4c0.4,0.1,0.9,0.1,1.3,0.1c0.7,0,1.3-0.2,1.9-0.4c-1.7-5.4-2.8-11-3.2-16.8   C28.5,55.5,28.5,55.4,28.5,55.3z M25.5,63.6c-0.9,0-1.7-0.7-1.7-1.7c0-0.9,0.7-1.7,1.7-1.7s1.7,0.7,1.7,1.7   C27.1,62.8,26.4,63.6,25.5,63.6z">
		</path>
		<path fill="#adb5bd" d="M50.1,5.2c-0.8,0-1.6,0.1-2.4,0.1l-0.8,0.1l-0.8,0.1l0,0c-0.4,0-0.8,0-1.2,0.1c-0.7,0.1-1.3,0.2-2,0.3   C21.6,9.2,5.1,27.8,5.1,50.2c0,22.4,16.5,41,38,44.4c0.6,0.1,1.2,0.2,1.8,0.3c0.4,0,0.9,0.1,1.3,0.1l0,0l0.8,0.1l0.8,0.1   c0.8,0.1,1.6,0.1,2.4,0.1c24.8,0,45-20.2,45-45S74.9,5.2,50.1,5.2z M9.3,50.2c0-18.9,12.9-34.7,30.3-39.4c1-0.3,2-0.5,3-0.7   c0.2,0,0.4-0.1,0.6-0.1c-0.6,1-1.3,2-1.8,3.1c-3.7,6.4-6.4,13.2-8,20.3c-0.3,1.5-0.7,3-0.9,4.6c0,0,0,0,0,0   c-0.4,2.1-0.6,4.3-0.8,6.5c-0.1,1.9-0.2,3.8-0.2,5.7c0,0.9,0.1,1.9,0.1,2.8c0.1,1.6,0.2,3.1,0.3,4.7c0.4,4.5,1.3,9,2.6,13.3v0   c0.4,1.5,0.9,3,1.5,4.5c0,0,0,0,0,0c0.5,1.4,1.1,2.9,1.7,4.3c0,0,0,0,0,0c0.9,2.1,1.9,4.2,3,6.2c0,0,0,0,0,0   c0.2,0.4,0.5,0.9,0.7,1.3c0.6,1.1,1.2,2.1,1.9,3.2c-0.2,0-0.4-0.1-0.6-0.1c-1-0.2-2-0.4-3-0.7C22.1,84.9,9.3,69,9.3,50.2z">
		</path>
	</g>
</svg>
