<svg xmlns="http://www.w3.org/2000/svg" xmlns:xlink="http://www.w3.org/1999/xlink" version="1.1" x="0px" y="0px" viewBox="0 0 100 100" enable-background="new 0 0 100 100" xml:space="preserve">
	<g>
		<path fill="#adb5bd" d="M42.8,25.8c-0.5-0.5-1.2-0.9-2-0.9c-0.9,0-1.6,0.4-2.2,1c-0.2,0.2-0.3,0.4-0.4,0.7   c-0.1,0.3-0.2,0.7-0.2,1.1c0,0.8,0.3,1.5,0.8,2c0.5,0.5,1.2,0.8,2,0.8c0,0,0,0,0,0c-0.1,1.9,0.7,3.6,2.1,4.4   c0.7,0.4,1.4,0.5,2.2,0.5V24.2v0c-0.4,0.2-0.8,0.4-1.2,0.7C43.5,25.1,43.2,25.4,42.8,25.8z">
		</path>
		<circle fill="#adb5bd" cx="28.7" cy="23" r="2.1">
		</circle>
		<path fill="#adb5bd" d="M42.4,39.8c-0.2,0.2-0.4,0.4-0.6,0.6c-0.1,0.2-0.2,0.5-0.2,0.8c0,0.3,0.1,0.5,0.2,0.8   c0.4,0.7,1.3,1.2,2.4,1.2c0.3,0,0.6-0.1,0.9-0.1v-3.7v0c-0.3-0.1-0.6-0.1-0.9-0.1C43.5,39.2,42.9,39.4,42.4,39.8z">
		</path>
		<path fill="#adb5bd" d="M42.7,66.6c-0.3,0.7-0.4,1.4-0.4,2.2c0,1.2,0.4,2.1,1,2.9c0.5,0.6,1.2,1,1.9,1.3v-9.1   c-0.1,0.1-0.3,0.1-0.4,0.2C43.8,64.8,43.1,65.6,42.7,66.6z">
		</path>
		<path fill="#adb5bd" d="M36.2,67.2c0.6,0.7,1.5,1.2,2.5,1.2c0.9,0,1.7-0.4,2.2-0.9c0.6-0.6,0.9-1.4,0.9-2.2c0-0.4-0.1-0.8-0.2-1.2   c-0.5-1.1-1.6-1.9-2.9-1.9c-0.7,0-1.3,0.2-1.8,0.6C36.4,63,36,63.5,35.8,64c-0.2-0.5-0.5-0.9-0.8-1.4c-0.3-0.4-0.7-0.8-1-1.1   c0,0,0,0,0,0v0c2-0.4,3.8-1.4,5-2.9c0.6-0.7,1.1-1.6,1.5-2.5c0.3-0.9,0.5-1.9,0.5-3c0-4.8-3.9-8.6-8.6-8.6c-1,0-1.9,0.2-2.8,0.5   c0.9-0.9,1.5-2,1.8-3.2c0.1-0.5,0.2-1.1,0.2-1.7c0-0.3,0-0.6-0.1-1c0,0,0.1-0.1,0.1-0.1c0.3-0.3,0.6-0.7,0.9-1.2   c0.3-0.6,0.6-1.2,0.8-1.9c0.1-0.4,0.1-0.8,0.1-1.3c0-0.9-0.2-1.7-0.5-2.4c-0.4-0.8-0.9-1.6-1.6-2.2c-1.1-1-2.5-1.6-4.1-1.6   c-2.5,0-4.6,1.4-5.6,3.5c-0.3,0.6-0.5,1.3-0.6,2c1.3,0.2,2.3,1.2,2.3,2.6c0,1.5-1.2,2.6-2.6,2.6c-1.1,0-2.1-0.7-2.5-1.7   c-0.1,0.3-0.2,0.5-0.3,0.8c-0.2,0.6-0.2,1.2-0.2,1.8c0,1.4,0.4,2.7,1.1,3.7c-0.4,0.4-0.8,0.5-1.2,0.5c-0.4-0.1-0.8-0.4-1.2-0.7   c-0.2-0.2-0.4-0.4-0.6-0.6c-0.4-0.4-0.7-0.9-0.9-1.4c-0.1-0.2-0.2-0.4-0.3-0.6c-0.4-0.8-0.5-1.8-0.7-2.3c-1,3.2-1.7,6.6-1.8,10.1   c0,0.5,0,1,0,1.6c0,0.5,0,0.9,0,1.4c1.6-0.5,3.4,0.9,4.1,3c0.7,2.2,0,4.3-1.6,4.8c-0.4,0.1-0.9,0.1-1.3,0c0,0.2,0.1,0.3,0.1,0.5   c0.9,3.2,2.2,6.3,3.8,9.1c0.1-0.2,0.1-0.5,0.3-0.6c0.6-0.4,1.5-0.2,2,0.6c0.5,0.7,0.5,1.7,0,2.1c0,0,0,0,0,0   c0.8,0.5,1.6,0.9,2.4,1.2c0.5,0.2,1,0.3,1.5,0.4c0.5,0.1,1,0.1,1.4,0c-0.5,0.3-0.8,0.9-0.8,1.5c0,1,0.8,1.8,1.8,1.8   c1,0,1.8-0.8,1.8-1.8c0-0.8-0.5-1.4-1.2-1.7c0.4-0.1,0.7-0.1,1.1-0.3c0.4,0.2,0.8,0.3,1.2,0.4c0.4,0.1,0.9,0.1,1.3,0.1   c2.5,0,4.6-1.4,5.7-3.4C35.9,68.7,36.1,68,36.2,67.2z M25.5,63.6c-0.9,0-1.7-0.7-1.7-1.7c0-0.9,0.7-1.7,1.7-1.7   c0.9,0,1.7,0.7,1.7,1.7C27.2,62.8,26.4,63.6,25.5,63.6z M31,57.8c-1.4,0-2.5-1.1-2.5-2.5c0-0.2,0.1-0.4,0.1-0.6   c-0.4,0.3-0.8,0.6-1.3,0.7c-1.9,0.6-4-0.4-4.5-2.1c-0.3-0.9-0.1-1.7,0.3-2.5c-0.3,0-0.6,0-0.9,0c-0.6-1.4-1.6-2.6-3-3.4l0,0   l2.2-1.4c0.5,0.2,1,0.4,1.5,0.6c0.5,0.1,1.1,0.2,1.7,0.2c0.7,0,1.3-0.1,2-0.3c-0.9,0.8-1.5,1.8-2,2.9c0.2-0.1,0.5-0.3,0.7-0.4   c1.9-0.6,4,0.4,4.5,2.1c0.2,0.7,0.1,1.4-0.2,2.1c0.4-0.2,0.8-0.4,1.3-0.4c1.4,0,2.5,1.1,2.5,2.5C33.4,56.7,32.3,57.8,31,57.8z">
		</path>
		<path fill="#adb5bd" d="M41,77.6L41,77.6c0-1.7-1.4-3-3-3c-1.3,0-2.5,0.8-2.9,1.9c-0.1,0.4-0.2,0.8-0.1,1.2c0.2,1.2,1.8,1.4,3,2.5   c0.5,0.4,1,0.4,1.5,0.1C40.4,79.8,41,78.6,41,77.6z">
		</path>
		<path fill="#adb5bd" d="M42.5,85.3c-0.4,0-0.8,0-1.2,0.1c-0.4,0.1-0.7,0.3-1,0.6c-0.3,0.2-0.6,0.5-0.8,0.9h0   c1.8,0.5,3.7,0.9,5.5,1.2v-0.7c-0.2-0.6-0.6-1.1-1-1.4C43.6,85.5,43.1,85.3,42.5,85.3z">
		</path>
		<path fill="#adb5bd" d="M50.2,5.2h-2.1v0.1C24.2,6.4,5.2,26.1,5.2,50.2c0,24.1,19.1,43.8,42.9,44.9v0.1h2.1c24.8,0,45-20.2,45-45   C95.2,25.4,75,5.2,50.2,5.2z M9.3,50.2c0-20.8,15.7-38,35.8-40.5c1-0.1,1.9-0.2,2.9-0.2v2.7v11.8v10.5v28.9v10.3v0v14.7v2.7   c-1,0-2-0.1-2.9-0.2C25,88.2,9.3,71,9.3,50.2z">
		</path>
	</g>
</svg>
