<svg xmlns="http://www.w3.org/2000/svg" xmlns:xlink="http://www.w3.org/1999/xlink" version="1.1" x="0px" y="0px" viewBox="0 0 100 100" enable-background="new 0 0 100 100" xml:space="preserve">
	<g>
		<path fill="#adb5bd" d="M74,23.3c0.2-0.3,0.3-0.7,0.3-1.2c0-0.6-0.3-1.3-0.7-1.9c-0.4-0.6-1.1-1.2-1.8-1.6c-1-0.6-2.1-0.9-3.1-0.8   c-0.5,0-0.9,0.1-1.3,0.3c-0.4,0.2-0.7,0.5-0.9,0.8c-0.2,0.3-0.3,0.7-0.3,1.2c0,1.2,1,2.6,2.6,3.5C70.8,24.8,73.2,24.7,74,23.3z">
		</path>
		<path fill="#adb5bd" d="M63.5,27.4c-0.4,0-0.8,0.1-1.2,0.2c-1.2,0.3-2.2,1-2.8,2c-1.6,0.1-3,0.8-4,1.9c-0.2,0.2-0.3,0.5-0.5,0.7   v6.9c0.2,0.3,0.4,0.5,0.6,0.7c0.5,0.5,1.2,1,1.9,1.3c0.1,0,0.2,0,0.2,0.1c0.2-0.7,0.8-1.3,1.6-1.3c0.8,0,1.5,0.6,1.6,1.5   c0.3-0.1,0.7-0.1,1-0.2c1.3-0.5,2.4-1.5,3.1-2.7c0.3-0.6,0.6-1.3,0.7-2c0.4-0.2,0.7-0.5,1-0.8c0.9-0.9,1.5-2.1,1.5-3.5   C68.4,29.6,66.2,27.4,63.5,27.4z">
		</path>
		<path fill="#adb5bd" d="M78,28.9c-0.6-0.2-1.2-0.4-1.9-0.4s-1.3,0.1-1.9,0.4c-1.7,0.7-3,2.5-3,4.5c0,1.3,0.5,2.6,1.4,3.4   c0.9,0.9,2.1,1.4,3.4,1.4c1.3,0,2.6-0.5,3.4-1.4c0.9-0.9,1.4-2.1,1.4-3.4C81,31.4,79.8,29.6,78,28.9z">
		</path>
		<path fill="#adb5bd" d="M73,44.1c-0.3,0-0.6,0.1-0.8,0.2c-0.7,0.3-1.3,1.1-1.3,1.9c0,0.9,0.5,1.6,1.3,1.9c0.2,0.1,0.5,0.2,0.8,0.2   c0.6,0,1.1-0.2,1.5-0.6s0.6-0.9,0.6-1.5c0-0.6-0.2-1.1-0.6-1.5C74.1,44.3,73.6,44.1,73,44.1z">
		</path>
		<path fill="#adb5bd" d="M78.8,24.3c0.4,0,0.7-0.1,1-0.3c-0.9-1-1.8-1.9-2.8-2.7c-0.1,0.3-0.2,0.6-0.2,0.9c0,0.6,0.2,1.1,0.6,1.5   C77.8,24.1,78.3,24.3,78.8,24.3z">
		</path>
		<circle fill="#adb5bd" cx="61.2" cy="75.5" r="0.9">
		</circle>
		<path fill="#adb5bd" d="M52.1,5.1V5H50C25.2,5,5,25.2,5,50s20.2,45,45,45h2.1v-0.1C75.9,93.8,95,74.1,95,50S75.9,6.2,52.1,5.1z    M55,90.5c-1,0.1-1.9,0.2-2.9,0.2v-2.6V73v-9.4V33v0v-7.8V11.8V9.3c1,0,2,0.1,2.9,0.2C75.2,12,90.8,29.2,90.8,50S75.2,88,55,90.5z">
		</path>
	</g>
</svg>
